<mxfile host="app.diagrams.net" modified="2023-12-12T21:39:47.665Z" agent="Mozilla/5.0 (X11; Linux x86_64; rv:120.0) Gecko/20100101 Firefox/120.0" version="22.1.8" etag="bOD89StUcsF6ys1H57oo" type="github">
  <diagram name="Page-1" id="Q4ntbCV2-dO5Me1tMP0K">
    <mxGraphModel>
      <root>
        <mxCell id="0" />
        <mxCell id="1" parent="0" />
      </root>
    </mxGraphModel>
  </diagram>
</mxfile>
